<svg width="335" height="228" viewBox="0 0 335 228" fill="none" xmlns="http://www.w3.org/2000/svg">
<g opacity="0.4">
<path d="M-72.3491 127.367L-22.2757 243.446C-21.0175 246.363 -18.1452 248.252 -14.9686 248.252H217.373H274.513C277.689 248.252 280.561 246.363 281.82 243.446L331.893 127.367C332.769 125.336 332.76 123.031 331.868 121.006L281.839 7.47189C280.567 4.58565 277.711 2.7229 274.557 2.7229H221.178H-15.0165C-18.1705 2.7229 -21.0234 4.58565 -22.2952 7.47189L-72.3243 121.006C-73.2165 123.031 -73.2255 125.336 -72.3491 127.367Z" stroke="white" stroke-width="4"/>
<path d="M49.1755 20.9124H7.1337C4.35933 20.9124 1.84677 22.5509 0.728035 25.0897L-41.7979 121.597C-42.5827 123.378 -42.5906 125.405 -41.8197 127.192L0.745209 225.865C1.85197 228.43 4.3785 230.092 7.17268 230.092H49.2502C54.1201 230.092 57.5018 225.243 55.819 220.673L21.2632 126.834C20.6825 125.257 20.6885 123.524 21.2802 121.951L55.7273 30.3769C57.4491 25.7996 54.066 20.9124 49.1755 20.9124Z" stroke="white" stroke-width="4"/>
<rect x="102.214" y="22.9124" width="56.2528" height="200.632" rx="5" stroke="white" stroke-width="4"/>
<path d="M211.505 20.9124H253.547C256.321 20.9124 258.834 22.5509 259.953 25.0897L302.479 121.597C303.264 123.378 303.271 125.405 302.501 127.192L259.936 225.865C258.829 228.43 256.302 230.092 253.508 230.092H211.431C206.561 230.092 203.179 225.243 204.862 220.673L239.418 126.834C239.998 125.257 239.992 123.524 239.401 121.951L204.954 30.3769C203.232 25.7996 206.615 20.9124 211.505 20.9124Z" stroke="white" stroke-width="4"/>
</g>
</svg>
