<svg width="85" height="54" viewBox="0 0 85 54" fill="none" xmlns="http://www.w3.org/2000/svg">
<path d="M0.13642 27.4135L10.6316 52.943C10.8953 53.5845 11.4973 54 12.1631 54H60.8608H72.8369C73.5027 54 74.1047 53.5845 74.3684 52.943L84.8636 27.4135C85.0473 26.9666 85.0454 26.4598 84.8584 26.0145L74.3725 1.04446C74.106 0.40968 73.5073 0 72.8462 0H61.6583H12.1531C11.492 0 10.894 0.40968 10.6275 1.04446L0.141616 26.0145C-0.0453813 26.4598 -0.0472638 26.9666 0.13642 27.4135Z" fill="white"/>
<path d="M26.2489 4.00061H16.5303C16.1114 4.00061 15.7334 4.25187 15.5712 4.6381L6.44928 26.3602C6.34215 26.6153 6.34106 26.9026 6.44627 27.1585L15.5739 49.3615C15.7342 49.7515 16.1142 50.0062 16.536 50.0062H26.2593C26.9763 50.0062 27.4783 49.298 27.2409 48.6215L19.6907 27.1069C19.6116 26.8816 19.6124 26.6361 19.693 26.4113L27.2281 5.39192C27.471 4.71425 26.9688 4.00061 26.2489 4.00061Z" fill="#121418"/>
<rect x="36.3048" y="4.00061" width="12.6287" height="45.0055" rx="1.04026" fill="#121418"/>
<path d="M58.9895 4.00061H68.7081C69.127 4.00061 69.505 4.25187 69.6672 4.6381L78.7891 26.3602C78.8963 26.6153 78.8973 26.9026 78.7921 27.1585L69.6645 49.3615C69.5042 49.7515 69.1242 50.0062 68.7024 50.0062H58.9791C58.2621 50.0062 57.7601 49.298 57.9975 48.6215L65.5477 27.1069C65.6268 26.8816 65.626 26.6361 65.5454 26.4113L58.0103 5.39192C57.7674 4.71425 58.2696 4.00061 58.9895 4.00061Z" fill="#121418"/>
</svg>
