<svg width="1218" height="132" viewBox="0 0 1218 132" fill="none" xmlns="http://www.w3.org/2000/svg">
<path d="M102.125 97C110.957 97 118.125 89.832 118.125 81V65H102.125C93.293 65 86.125 72.168 86.125 81C86.125 89.832 93.293 97 102.125 97Z" fill="#0ACF83"/>
<path d="M86.125 49C86.125 40.168 93.293 33 102.125 33H118.125V65H102.125C93.293 65 86.125 57.832 86.125 49Z" fill="#A259FF"/>
<path d="M86.125 17C86.125 8.168 93.293 1 102.125 1H118.125V33H102.125C93.293 33 86.125 25.832 86.125 17Z" fill="#F24E1E"/>
<path d="M118.125 1H134.125C142.957 1 150.125 8.168 150.125 17C150.125 25.832 142.957 33 134.125 33H118.125V1Z" fill="#FF7262"/>
<path d="M150.125 49C150.125 57.832 142.957 65 134.125 65C125.293 65 118.125 57.832 118.125 49C118.125 40.168 125.293 33 134.125 33C142.957 33 150.125 40.168 150.125 49Z" fill="#1ABCFE"/>
<path d="M96.634 117V105.858H103.456V107.694H98.848V110.394H102.88V112.23H98.848V117H96.634ZM105.472 117V115.164H107.902V107.694H105.472V105.858H112.546V107.694H110.134V115.164H112.546V117H105.472ZM119.116 107.532C118.588 107.532 118.144 107.628 117.784 107.82C117.424 108.012 117.124 108.282 116.884 108.63C116.656 108.966 116.488 109.374 116.38 109.854C116.284 110.322 116.236 110.844 116.236 111.42C116.236 112.752 116.446 113.736 116.866 114.372C117.286 114.996 117.904 115.308 118.72 115.308C118.852 115.308 118.996 115.302 119.152 115.29C119.308 115.278 119.452 115.26 119.584 115.236V111.168H121.798V116.73C121.534 116.826 121.12 116.934 120.556 117.054C120.004 117.174 119.332 117.234 118.54 117.234C117.844 117.234 117.214 117.114 116.65 116.874C116.098 116.622 115.624 116.256 115.228 115.776C114.832 115.284 114.526 114.678 114.31 113.958C114.094 113.226 113.986 112.38 113.986 111.42C113.986 110.472 114.112 109.638 114.364 108.918C114.616 108.186 114.958 107.574 115.39 107.082C115.822 106.59 116.332 106.224 116.92 105.984C117.508 105.732 118.138 105.606 118.81 105.606C119.242 105.606 119.626 105.642 119.962 105.714C120.31 105.774 120.61 105.846 120.862 105.93C121.114 106.014 121.318 106.104 121.474 106.2C121.642 106.296 121.768 106.368 121.852 106.416L121.276 108.18C121.012 108.012 120.688 107.862 120.304 107.73C119.92 107.598 119.524 107.532 119.116 107.532ZM125.398 105.858C125.482 106.11 125.584 106.434 125.704 106.83C125.836 107.226 125.974 107.652 126.118 108.108C126.262 108.564 126.406 109.026 126.55 109.494C126.694 109.962 126.832 110.394 126.964 110.79C127.108 110.346 127.258 109.89 127.414 109.422C127.57 108.942 127.72 108.486 127.864 108.054C128.008 107.61 128.14 107.196 128.26 106.812C128.38 106.428 128.488 106.11 128.584 105.858H130.42C130.504 106.83 130.582 107.778 130.654 108.702C130.738 109.626 130.804 110.544 130.852 111.456C130.912 112.356 130.96 113.268 130.996 114.192C131.032 115.104 131.062 116.04 131.086 117H129.052L129.16 108.342L127.792 113.058H126.172L124.858 108.342L124.948 117H122.914C122.95 116.088 122.986 115.14 123.022 114.156C123.07 113.172 123.118 112.194 123.166 111.222C123.214 110.25 123.268 109.308 123.328 108.396C123.4 107.484 123.478 106.638 123.562 105.858H125.398ZM137.962 117L137.44 114.426H134.47L133.966 117H131.662C132.19 114.804 132.724 112.806 133.264 111.006C133.804 109.194 134.326 107.478 134.83 105.858H137.242C137.77 107.49 138.292 109.224 138.808 111.06C139.336 112.884 139.846 114.864 140.338 117H137.962ZM135.982 108.018C135.862 108.438 135.748 108.84 135.64 109.224C135.544 109.596 135.448 109.968 135.352 110.34C135.268 110.7 135.184 111.066 135.1 111.438C135.028 111.81 134.956 112.194 134.884 112.59H137.062C136.99 112.194 136.918 111.81 136.846 111.438C136.774 111.066 136.69 110.7 136.594 110.34C136.51 109.968 136.414 109.596 136.306 109.224C136.21 108.84 136.102 108.438 135.982 108.018Z" fill="white"/>
<rect x="74" y="125" width="88" height="7" rx="3.5" fill="#5A606A"/>
<rect x="74" y="125" width="54" height="7" rx="3.5" fill="#A259FF"/>
<g clip-path="url(#clip0_1_326)">
<path fill-rule="evenodd" clip-rule="evenodd" d="M210 1H306V97H210V1Z" fill="#F7DF1E"/>
<path fill-rule="evenodd" clip-rule="evenodd" d="M235.242 81.2246L242.589 76.7786C244.006 79.2915 245.295 81.4177 248.388 81.4177C251.352 81.4177 253.221 80.2581 253.221 75.7476V45.0733H262.243V75.8751C262.243 85.2191 256.765 89.4722 248.774 89.4722C241.558 89.4722 237.368 85.7345 235.242 81.2239" fill="black"/>
<path fill-rule="evenodd" clip-rule="evenodd" d="M267.143 80.2579L274.489 76.0048C276.422 79.1628 278.935 81.4824 283.382 81.4824C287.12 81.4824 289.503 79.6135 289.503 77.0358C289.503 73.9426 287.055 72.847 282.93 71.0433L280.676 70.076C274.167 67.3055 269.849 63.8258 269.849 56.4793C269.849 49.713 275.004 44.5575 283.06 44.5575C288.795 44.5575 292.919 46.5554 295.883 51.7752L288.859 56.2858C287.312 53.5151 285.637 52.4197 283.06 52.4197C280.418 52.4197 278.742 54.0952 278.742 56.2858C278.742 58.9924 280.418 60.0882 284.284 61.7637L286.539 62.7303C294.208 66.017 298.525 69.3676 298.525 76.9069C298.525 85.027 292.146 89.473 283.575 89.473C275.198 89.473 269.785 85.4779 267.143 80.2579" fill="black"/>
</g>
<path d="M220.884 113.274C220.884 113.814 220.812 114.324 220.668 114.804C220.536 115.284 220.308 115.704 219.984 116.064C219.672 116.424 219.264 116.712 218.76 116.928C218.256 117.132 217.644 117.234 216.924 117.234C216.168 117.234 215.538 117.138 215.034 116.946C214.53 116.754 214.104 116.52 213.756 116.244L214.602 114.48C214.902 114.672 215.232 114.858 215.592 115.038C215.964 115.218 216.342 115.308 216.726 115.308C217.302 115.308 217.764 115.158 218.112 114.858C218.472 114.546 218.652 113.976 218.652 113.148V107.694H214.926V105.858H220.884V113.274ZM228.462 117L227.94 114.426H224.97L224.466 117H222.162C222.69 114.804 223.224 112.806 223.764 111.006C224.304 109.194 224.826 107.478 225.33 105.858H227.742C228.27 107.49 228.792 109.224 229.308 111.06C229.836 112.884 230.346 114.864 230.838 117H228.462ZM226.482 108.018C226.362 108.438 226.248 108.84 226.14 109.224C226.044 109.596 225.948 109.968 225.852 110.34C225.768 110.7 225.684 111.066 225.6 111.438C225.528 111.81 225.456 112.194 225.384 112.59H227.562C227.49 112.194 227.418 111.81 227.346 111.438C227.274 111.066 227.19 110.7 227.094 110.34C227.01 109.968 226.914 109.596 226.806 109.224C226.71 108.84 226.602 108.438 226.482 108.018ZM234.348 117C234.06 116.172 233.754 115.236 233.43 114.192C233.106 113.148 232.8 112.11 232.512 111.078C232.224 110.034 231.966 109.05 231.738 108.126C231.51 107.202 231.342 106.446 231.234 105.858H233.574C233.646 106.434 233.754 107.106 233.898 107.874C234.042 108.63 234.198 109.416 234.366 110.232C234.546 111.036 234.732 111.834 234.924 112.626C235.128 113.406 235.326 114.108 235.518 114.732C235.71 114.12 235.902 113.424 236.094 112.644C236.286 111.852 236.466 111.054 236.634 110.25C236.802 109.434 236.958 108.642 237.102 107.874C237.246 107.106 237.366 106.434 237.462 105.858H239.784C239.64 106.578 239.46 107.382 239.244 108.27C239.04 109.158 238.8 110.094 238.524 111.078C238.26 112.05 237.966 113.046 237.642 114.066C237.318 115.074 236.982 116.052 236.634 117H234.348ZM246.462 117L245.94 114.426H242.97L242.466 117H240.162C240.69 114.804 241.224 112.806 241.764 111.006C242.304 109.194 242.826 107.478 243.33 105.858H245.742C246.27 107.49 246.792 109.224 247.308 111.06C247.836 112.884 248.346 114.864 248.838 117H246.462ZM244.482 108.018C244.362 108.438 244.248 108.84 244.14 109.224C244.044 109.596 243.948 109.968 243.852 110.34C243.768 110.7 243.684 111.066 243.6 111.438C243.528 111.81 243.456 112.194 243.384 112.59H245.562C245.49 112.194 245.418 111.81 245.346 111.438C245.274 111.066 245.19 110.7 245.094 110.34C245.01 109.968 244.914 109.596 244.806 109.224C244.71 108.84 244.602 108.438 244.482 108.018ZM253.176 115.38C253.548 115.38 253.854 115.344 254.094 115.272C254.346 115.188 254.544 115.08 254.688 114.948C254.832 114.804 254.928 114.648 254.976 114.48C255.036 114.3 255.066 114.12 255.066 113.94C255.066 113.712 255 113.508 254.868 113.328C254.736 113.148 254.568 112.992 254.364 112.86C254.16 112.716 253.932 112.59 253.68 112.482C253.428 112.362 253.176 112.254 252.924 112.158C252.588 112.038 252.24 111.9 251.88 111.744C251.52 111.588 251.19 111.39 250.89 111.15C250.602 110.91 250.362 110.616 250.17 110.268C249.978 109.908 249.882 109.464 249.882 108.936C249.882 107.892 250.218 107.076 250.89 106.488C251.574 105.9 252.51 105.606 253.698 105.606C254.382 105.606 254.976 105.684 255.48 105.84C255.996 105.996 256.428 106.17 256.776 106.362L256.128 108.072C255.828 107.904 255.492 107.76 255.12 107.64C254.76 107.52 254.34 107.46 253.86 107.46C252.684 107.46 252.096 107.886 252.096 108.738C252.096 108.954 252.156 109.146 252.276 109.314C252.396 109.47 252.546 109.614 252.726 109.746C252.918 109.866 253.128 109.974 253.356 110.07C253.596 110.166 253.83 110.256 254.058 110.34C254.406 110.472 254.766 110.622 255.138 110.79C255.522 110.946 255.87 111.162 256.182 111.438C256.506 111.702 256.77 112.038 256.974 112.446C257.178 112.842 257.28 113.346 257.28 113.958C257.28 115.002 256.938 115.812 256.254 116.388C255.582 116.952 254.556 117.234 253.176 117.234C252.252 117.234 251.514 117.138 250.962 116.946C250.41 116.742 249.996 116.556 249.72 116.388L250.368 114.588C250.692 114.78 251.076 114.96 251.52 115.128C251.976 115.296 252.528 115.38 253.176 115.38ZM263.328 117.234C261.756 117.234 260.556 116.73 259.728 115.722C258.9 114.714 258.486 113.28 258.486 111.42C258.486 110.496 258.612 109.674 258.864 108.954C259.116 108.234 259.464 107.628 259.908 107.136C260.364 106.632 260.898 106.254 261.51 106.002C262.134 105.738 262.812 105.606 263.544 105.606C263.94 105.606 264.294 105.642 264.606 105.714C264.93 105.774 265.212 105.846 265.452 105.93C265.692 106.014 265.89 106.104 266.046 106.2C266.214 106.296 266.34 106.368 266.424 106.416L265.848 108.18C265.572 108 265.236 107.85 264.84 107.73C264.456 107.598 264.012 107.532 263.508 107.532C263.16 107.532 262.818 107.598 262.482 107.73C262.158 107.85 261.864 108.06 261.6 108.36C261.348 108.648 261.138 109.038 260.97 109.53C260.814 110.022 260.736 110.634 260.736 111.366C260.736 112.638 260.952 113.616 261.384 114.3C261.828 114.972 262.548 115.308 263.544 115.308C264.12 115.308 264.594 115.242 264.966 115.11C265.35 114.978 265.656 114.846 265.884 114.714L266.442 116.46C266.13 116.652 265.704 116.832 265.164 117C264.636 117.156 264.024 117.234 263.328 117.234ZM270.852 105.732C271.488 105.732 272.064 105.804 272.58 105.948C273.096 106.092 273.54 106.314 273.912 106.614C274.284 106.914 274.566 107.298 274.758 107.766C274.962 108.222 275.064 108.762 275.064 109.386C275.064 110.034 274.932 110.622 274.668 111.15C274.404 111.678 273.966 112.08 273.354 112.356C273.558 112.668 273.774 113.016 274.002 113.4C274.23 113.772 274.452 114.168 274.668 114.588C274.884 114.996 275.088 115.41 275.28 115.83C275.484 116.238 275.658 116.628 275.802 117H273.48C273.204 116.28 272.88 115.59 272.508 114.93C272.148 114.258 271.758 113.58 271.338 112.896H270.186V117H267.972V106.02C268.188 105.972 268.422 105.93 268.674 105.894C268.938 105.846 269.202 105.816 269.466 105.804C269.73 105.78 269.982 105.762 270.222 105.75C270.462 105.738 270.672 105.732 270.852 105.732ZM272.814 109.368C272.814 108.78 272.634 108.348 272.274 108.072C271.914 107.796 271.44 107.658 270.852 107.658C270.768 107.658 270.666 107.664 270.546 107.676C270.426 107.676 270.306 107.688 270.186 107.712V111.06H270.672C271.428 111.06 271.974 110.916 272.31 110.628C272.646 110.328 272.814 109.908 272.814 109.368ZM276.972 117V115.164H279.402V107.694H276.972V105.858H284.046V107.694H281.634V115.164H284.046V117H276.972ZM289.032 105.732C290.448 105.732 291.546 106.026 292.326 106.614C293.106 107.19 293.496 108.138 293.496 109.458C293.496 110.79 293.1 111.756 292.308 112.356C291.528 112.944 290.418 113.238 288.978 113.238H288.186V117H285.972V106.002C286.188 105.954 286.428 105.912 286.692 105.876C286.968 105.84 287.244 105.816 287.52 105.804C287.796 105.78 288.066 105.762 288.33 105.75C288.594 105.738 288.828 105.732 289.032 105.732ZM289.284 107.658C289.152 107.658 288.966 107.664 288.726 107.676C288.498 107.676 288.318 107.688 288.186 107.712V111.312H289.086C289.794 111.312 290.328 111.174 290.688 110.898C291.048 110.61 291.228 110.124 291.228 109.44C291.228 108.792 291.048 108.336 290.688 108.072C290.34 107.796 289.872 107.658 289.284 107.658ZM302.55 105.858V107.694H299.616V117H297.384V107.694H294.45V105.858H302.55Z" fill="white"/>
<rect x="214" y="125" width="88" height="7" rx="3.5" fill="#5A606A"/>
<rect x="214" y="125" width="75" height="7" rx="3.5" fill="#F7DF1E"/>
<g clip-path="url(#clip1_1_326)">
<path d="M357.5 1H438.5C442.642 1 446 4.35786 446 8.5V89.5C446 93.6421 442.642 97 438.5 97H357.5C353.358 97 350 93.6421 350 89.5V8.5C350 4.35786 353.358 1 357.5 1Z" fill="#3178C6"/>
<path d="M406.444 76.1781V86.5356C408.129 87.3989 410.121 88.0461 412.421 88.4778C414.721 88.9094 417.145 89.125 419.693 89.125C422.177 89.125 424.536 88.8876 426.771 88.4129C429.006 87.9381 430.966 87.1559 432.65 86.0665C434.335 84.9767 435.668 83.5525 436.651 81.7937C437.634 80.0354 438.125 77.8615 438.125 75.2721C438.125 73.3949 437.844 71.7494 437.283 70.336C436.721 68.9226 435.911 67.6656 434.853 66.5654C433.795 65.4648 432.526 64.4777 431.047 63.6036C429.568 62.7299 427.9 61.9045 426.042 61.1279C424.682 60.5665 423.462 60.022 422.382 59.4932C421.302 58.9645 420.384 58.4253 419.628 57.8748C418.872 57.3246 418.289 56.7419 417.879 56.1269C417.469 55.5119 417.264 54.8163 417.264 54.0393C417.264 53.3271 417.447 52.6855 417.814 52.1136C418.181 51.5417 418.7 51.0509 419.369 50.641C420.039 50.2308 420.859 49.9127 421.831 49.6859C422.803 49.4594 423.883 49.3461 425.071 49.3461C425.935 49.3461 426.847 49.411 427.808 49.5404C428.769 49.6697 429.735 49.8692 430.707 50.1392C431.679 50.4089 432.623 50.7486 433.541 51.1589C434.459 51.5688 435.307 52.0435 436.084 52.5828V42.9051C434.508 42.301 432.785 41.8533 430.917 41.5619C429.05 41.2705 426.906 41.125 424.487 41.125C422.025 41.125 419.693 41.3894 417.491 41.9181C415.288 42.4465 413.349 43.2719 411.676 44.3939C410.002 45.5163 408.68 46.9457 407.708 48.6827C406.736 50.4198 406.25 52.4965 406.25 54.9134C406.25 57.9989 407.141 60.6314 408.923 62.8109C410.704 64.99 413.409 66.835 417.037 68.3455C418.462 68.9282 419.791 69.4997 421.021 70.0611C422.252 70.6221 423.316 71.2045 424.212 71.8086C425.108 72.4127 425.816 73.0709 426.334 73.783C426.852 74.4951 427.111 75.3044 427.111 76.2107C427.111 76.8794 426.949 77.5 426.625 78.0719C426.302 78.6434 425.81 79.1399 425.152 79.5606C424.493 79.9814 423.672 80.3102 422.69 80.5476C421.707 80.785 420.557 80.9039 419.24 80.9039C416.994 80.9039 414.77 80.5101 412.567 79.7222C410.364 78.9347 408.323 77.7535 406.444 76.1781ZM389.181 50.4033H402.5V41.875H365.375V50.4033H378.629V88.375H389.181V50.4033Z" fill="white"/>
</g>
<path d="M361.55 105.858V107.694H358.616V117H356.384V107.694H353.45V105.858H361.55ZM366.572 110.952C366.704 110.676 366.854 110.328 367.022 109.908C367.202 109.488 367.376 109.044 367.544 108.576C367.724 108.108 367.892 107.634 368.048 107.154C368.216 106.674 368.366 106.242 368.498 105.858H370.784C370.556 106.47 370.328 107.064 370.1 107.64C369.872 108.216 369.632 108.786 369.38 109.35C369.128 109.914 368.858 110.478 368.57 111.042C368.282 111.594 367.97 112.164 367.634 112.752V117H365.402V112.77C364.742 111.606 364.16 110.472 363.656 109.368C363.164 108.252 362.69 107.082 362.234 105.858H364.61C364.886 106.722 365.192 107.604 365.528 108.504C365.864 109.392 366.212 110.208 366.572 110.952ZM375.032 105.732C376.448 105.732 377.546 106.026 378.326 106.614C379.106 107.19 379.496 108.138 379.496 109.458C379.496 110.79 379.1 111.756 378.308 112.356C377.528 112.944 376.418 113.238 374.978 113.238H374.186V117H371.972V106.002C372.188 105.954 372.428 105.912 372.692 105.876C372.968 105.84 373.244 105.816 373.52 105.804C373.796 105.78 374.066 105.762 374.33 105.75C374.594 105.738 374.828 105.732 375.032 105.732ZM375.284 107.658C375.152 107.658 374.966 107.664 374.726 107.676C374.498 107.676 374.318 107.688 374.186 107.712V111.312H375.086C375.794 111.312 376.328 111.174 376.688 110.898C377.048 110.61 377.228 110.124 377.228 109.44C377.228 108.792 377.048 108.336 376.688 108.072C376.34 107.796 375.872 107.658 375.284 107.658ZM381.134 117V105.858H387.884V107.694H383.348V110.196H387.29V112.032H383.348V115.164H388.28V117H381.134ZM393.176 115.38C393.548 115.38 393.854 115.344 394.094 115.272C394.346 115.188 394.544 115.08 394.688 114.948C394.832 114.804 394.928 114.648 394.976 114.48C395.036 114.3 395.066 114.12 395.066 113.94C395.066 113.712 395 113.508 394.868 113.328C394.736 113.148 394.568 112.992 394.364 112.86C394.16 112.716 393.932 112.59 393.68 112.482C393.428 112.362 393.176 112.254 392.924 112.158C392.588 112.038 392.24 111.9 391.88 111.744C391.52 111.588 391.19 111.39 390.89 111.15C390.602 110.91 390.362 110.616 390.17 110.268C389.978 109.908 389.882 109.464 389.882 108.936C389.882 107.892 390.218 107.076 390.89 106.488C391.574 105.9 392.51 105.606 393.698 105.606C394.382 105.606 394.976 105.684 395.48 105.84C395.996 105.996 396.428 106.17 396.776 106.362L396.128 108.072C395.828 107.904 395.492 107.76 395.12 107.64C394.76 107.52 394.34 107.46 393.86 107.46C392.684 107.46 392.096 107.886 392.096 108.738C392.096 108.954 392.156 109.146 392.276 109.314C392.396 109.47 392.546 109.614 392.726 109.746C392.918 109.866 393.128 109.974 393.356 110.07C393.596 110.166 393.83 110.256 394.058 110.34C394.406 110.472 394.766 110.622 395.138 110.79C395.522 110.946 395.87 111.162 396.182 111.438C396.506 111.702 396.77 112.038 396.974 112.446C397.178 112.842 397.28 113.346 397.28 113.958C397.28 115.002 396.938 115.812 396.254 116.388C395.582 116.952 394.556 117.234 393.176 117.234C392.252 117.234 391.514 117.138 390.962 116.946C390.41 116.742 389.996 116.556 389.72 116.388L390.368 114.588C390.692 114.78 391.076 114.96 391.52 115.128C391.976 115.296 392.528 115.38 393.176 115.38ZM403.328 117.234C401.756 117.234 400.556 116.73 399.728 115.722C398.9 114.714 398.486 113.28 398.486 111.42C398.486 110.496 398.612 109.674 398.864 108.954C399.116 108.234 399.464 107.628 399.908 107.136C400.364 106.632 400.898 106.254 401.51 106.002C402.134 105.738 402.812 105.606 403.544 105.606C403.94 105.606 404.294 105.642 404.606 105.714C404.93 105.774 405.212 105.846 405.452 105.93C405.692 106.014 405.89 106.104 406.046 106.2C406.214 106.296 406.34 106.368 406.424 106.416L405.848 108.18C405.572 108 405.236 107.85 404.84 107.73C404.456 107.598 404.012 107.532 403.508 107.532C403.16 107.532 402.818 107.598 402.482 107.73C402.158 107.85 401.864 108.06 401.6 108.36C401.348 108.648 401.138 109.038 400.97 109.53C400.814 110.022 400.736 110.634 400.736 111.366C400.736 112.638 400.952 113.616 401.384 114.3C401.828 114.972 402.548 115.308 403.544 115.308C404.12 115.308 404.594 115.242 404.966 115.11C405.35 114.978 405.656 114.846 405.884 114.714L406.442 116.46C406.13 116.652 405.704 116.832 405.164 117C404.636 117.156 404.024 117.234 403.328 117.234ZM410.852 105.732C411.488 105.732 412.064 105.804 412.58 105.948C413.096 106.092 413.54 106.314 413.912 106.614C414.284 106.914 414.566 107.298 414.758 107.766C414.962 108.222 415.064 108.762 415.064 109.386C415.064 110.034 414.932 110.622 414.668 111.15C414.404 111.678 413.966 112.08 413.354 112.356C413.558 112.668 413.774 113.016 414.002 113.4C414.23 113.772 414.452 114.168 414.668 114.588C414.884 114.996 415.088 115.41 415.28 115.83C415.484 116.238 415.658 116.628 415.802 117H413.48C413.204 116.28 412.88 115.59 412.508 114.93C412.148 114.258 411.758 113.58 411.338 112.896H410.186V117H407.972V106.02C408.188 105.972 408.422 105.93 408.674 105.894C408.938 105.846 409.202 105.816 409.466 105.804C409.73 105.78 409.982 105.762 410.222 105.75C410.462 105.738 410.672 105.732 410.852 105.732ZM412.814 109.368C412.814 108.78 412.634 108.348 412.274 108.072C411.914 107.796 411.44 107.658 410.852 107.658C410.768 107.658 410.666 107.664 410.546 107.676C410.426 107.676 410.306 107.688 410.186 107.712V111.06H410.672C411.428 111.06 411.974 110.916 412.31 110.628C412.646 110.328 412.814 109.908 412.814 109.368ZM416.972 117V115.164H419.402V107.694H416.972V105.858H424.046V107.694H421.634V115.164H424.046V117H416.972ZM429.032 105.732C430.448 105.732 431.546 106.026 432.326 106.614C433.106 107.19 433.496 108.138 433.496 109.458C433.496 110.79 433.1 111.756 432.308 112.356C431.528 112.944 430.418 113.238 428.978 113.238H428.186V117H425.972V106.002C426.188 105.954 426.428 105.912 426.692 105.876C426.968 105.84 427.244 105.816 427.52 105.804C427.796 105.78 428.066 105.762 428.33 105.75C428.594 105.738 428.828 105.732 429.032 105.732ZM429.284 107.658C429.152 107.658 428.966 107.664 428.726 107.676C428.498 107.676 428.318 107.688 428.186 107.712V111.312H429.086C429.794 111.312 430.328 111.174 430.688 110.898C431.048 110.61 431.228 110.124 431.228 109.44C431.228 108.792 431.048 108.336 430.688 108.072C430.34 107.796 429.872 107.658 429.284 107.658ZM442.55 105.858V107.694H439.616V117H437.384V107.694H434.45V105.858H442.55Z" fill="white"/>
<rect x="354" y="125" width="88" height="7" rx="3.5" fill="#5A606A"/>
<rect x="354" y="125" width="70" height="7" rx="3.5" fill="#3178C6"/>
<path fill-rule="evenodd" clip-rule="evenodd" d="M503.328 87.4035L495.625 1H580.273L572.561 87.39L537.897 97L503.328 87.4035Z" fill="#E44D26"/>
<path fill-rule="evenodd" clip-rule="evenodd" d="M537.949 89.6545L565.959 81.8889L572.549 8.06477H537.949V89.6545Z" fill="#F16529"/>
<path d="M523.926 40.1106H537.949V50.7075H514.235L511.377 18.6619H537.949V29.2591H522.958L523.926 40.1106Z" fill="#EBEBEB"/>
<path d="M537.903 67.6446L537.949 67.6322V78.6576L537.9 78.6711L516.193 72.6451L514.708 56.0062H525.346L526.101 64.4578L537.903 67.6446Z" fill="#EBEBEB"/>
<path d="M537.912 18.6619H564.458L563.509 29.2591H537.912V18.6619Z" fill="white"/>
<path d="M537.912 50.7075V40.1106H562.545L562.286 42.9562L559.637 72.6451L537.912 78.666V67.6411L549.731 64.4511L550.961 50.7075H537.912Z" fill="white"/>
<path d="M528.19 105.858V117H525.976V112.086H523.024V117H520.81V105.858H523.024V110.25H525.976V105.858H528.19ZM537.55 105.858V107.694H534.616V117H532.384V107.694H529.45V105.858H537.55ZM540.898 105.858C540.982 106.11 541.084 106.434 541.204 106.83C541.336 107.226 541.474 107.652 541.618 108.108C541.762 108.564 541.906 109.026 542.05 109.494C542.194 109.962 542.332 110.394 542.464 110.79C542.608 110.346 542.758 109.89 542.914 109.422C543.07 108.942 543.22 108.486 543.364 108.054C543.508 107.61 543.64 107.196 543.76 106.812C543.88 106.428 543.988 106.11 544.084 105.858H545.92C546.004 106.83 546.082 107.778 546.154 108.702C546.238 109.626 546.304 110.544 546.352 111.456C546.412 112.356 546.46 113.268 546.496 114.192C546.532 115.104 546.562 116.04 546.586 117H544.552L544.66 108.342L543.292 113.058H541.672L540.358 108.342L540.448 117H538.414C538.45 116.088 538.486 115.14 538.522 114.156C538.57 113.172 538.618 112.194 538.666 111.222C538.714 110.25 538.768 109.308 538.828 108.396C538.9 107.484 538.978 106.638 539.062 105.858H540.898ZM555.28 117H548.278V105.858H550.51V115.164H555.28V117Z" fill="white"/>
<rect x="494" y="125" width="88" height="7" rx="3.5" fill="#5A606A"/>
<rect x="494" y="125" width="85" height="7" rx="3.5" fill="#E44D26"/>
<path fill-rule="evenodd" clip-rule="evenodd" d="M643.329 87.4031L635.625 1H720.276L712.564 87.3889L677.899 97L643.329 87.4031Z" fill="#0071BC"/>
<path fill-rule="evenodd" clip-rule="evenodd" d="M678.022 89.6491L705.998 81.9528L712.553 8.19558H678.022V89.6491Z" fill="#29ABE2"/>
<path fill-rule="evenodd" clip-rule="evenodd" d="M653.259 39.9396L654.187 50.5211L678.022 39.9396V29.3411L653.259 39.9396Z" fill="#B3B3B3"/>
<path fill-rule="evenodd" clip-rule="evenodd" d="M704.42 18.0276L678.022 29.3411V39.9397L703.51 28.6091L704.42 18.0276Z" fill="#E6E6E6"/>
<path fill-rule="evenodd" clip-rule="evenodd" d="M678.022 67.6257L677.94 67.638L666.119 64.4636L665.347 56.0234H654.709L656.193 72.6511L677.938 78.6717L678.022 78.6518V67.6257Z" fill="#E6E6E6"/>
<path fill-rule="evenodd" clip-rule="evenodd" d="M678.022 39.9397V50.5211H690.963L689.787 64.3554L678.022 67.6348V78.66L699.694 72.6394L702.548 39.9397H678.022Z" fill="white"/>
<path fill-rule="evenodd" clip-rule="evenodd" d="M678.022 39.9397H653.259L654.187 50.5211H678.022V39.9397Z" fill="#E6E6E6"/>
<path fill-rule="evenodd" clip-rule="evenodd" d="M678.022 28.6091V18.0276H677.914H651.377L652.316 28.6091H678.022Z" fill="#E6E6E6"/>
<path fill-rule="evenodd" clip-rule="evenodd" d="M678.022 18.0276V28.4764V28.6091H703.51L704.42 18.0276H678.022Z" fill="white"/>
<path d="M669.828 117.234C668.256 117.234 667.056 116.73 666.228 115.722C665.4 114.714 664.986 113.28 664.986 111.42C664.986 110.496 665.112 109.674 665.364 108.954C665.616 108.234 665.964 107.628 666.408 107.136C666.864 106.632 667.398 106.254 668.01 106.002C668.634 105.738 669.312 105.606 670.044 105.606C670.44 105.606 670.794 105.642 671.106 105.714C671.43 105.774 671.712 105.846 671.952 105.93C672.192 106.014 672.39 106.104 672.546 106.2C672.714 106.296 672.84 106.368 672.924 106.416L672.348 108.18C672.072 108 671.736 107.85 671.34 107.73C670.956 107.598 670.512 107.532 670.008 107.532C669.66 107.532 669.318 107.598 668.982 107.73C668.658 107.85 668.364 108.06 668.1 108.36C667.848 108.648 667.638 109.038 667.47 109.53C667.314 110.022 667.236 110.634 667.236 111.366C667.236 112.638 667.452 113.616 667.884 114.3C668.328 114.972 669.048 115.308 670.044 115.308C670.62 115.308 671.094 115.242 671.466 115.11C671.85 114.978 672.156 114.846 672.384 114.714L672.942 116.46C672.63 116.652 672.204 116.832 671.664 117C671.136 117.156 670.524 117.234 669.828 117.234ZM677.676 115.38C678.048 115.38 678.354 115.344 678.594 115.272C678.846 115.188 679.044 115.08 679.188 114.948C679.332 114.804 679.428 114.648 679.476 114.48C679.536 114.3 679.566 114.12 679.566 113.94C679.566 113.712 679.5 113.508 679.368 113.328C679.236 113.148 679.068 112.992 678.864 112.86C678.66 112.716 678.432 112.59 678.18 112.482C677.928 112.362 677.676 112.254 677.424 112.158C677.088 112.038 676.74 111.9 676.38 111.744C676.02 111.588 675.69 111.39 675.39 111.15C675.102 110.91 674.862 110.616 674.67 110.268C674.478 109.908 674.382 109.464 674.382 108.936C674.382 107.892 674.718 107.076 675.39 106.488C676.074 105.9 677.01 105.606 678.198 105.606C678.882 105.606 679.476 105.684 679.98 105.84C680.496 105.996 680.928 106.17 681.276 106.362L680.628 108.072C680.328 107.904 679.992 107.76 679.62 107.64C679.26 107.52 678.84 107.46 678.36 107.46C677.184 107.46 676.596 107.886 676.596 108.738C676.596 108.954 676.656 109.146 676.776 109.314C676.896 109.47 677.046 109.614 677.226 109.746C677.418 109.866 677.628 109.974 677.856 110.07C678.096 110.166 678.33 110.256 678.558 110.34C678.906 110.472 679.266 110.622 679.638 110.79C680.022 110.946 680.37 111.162 680.682 111.438C681.006 111.702 681.27 112.038 681.474 112.446C681.678 112.842 681.78 113.346 681.78 113.958C681.78 115.002 681.438 115.812 680.754 116.388C680.082 116.952 679.056 117.234 677.676 117.234C676.752 117.234 676.014 117.138 675.462 116.946C674.91 116.742 674.496 116.556 674.22 116.388L674.868 114.588C675.192 114.78 675.576 114.96 676.02 115.128C676.476 115.296 677.028 115.38 677.676 115.38ZM686.676 115.38C687.048 115.38 687.354 115.344 687.594 115.272C687.846 115.188 688.044 115.08 688.188 114.948C688.332 114.804 688.428 114.648 688.476 114.48C688.536 114.3 688.566 114.12 688.566 113.94C688.566 113.712 688.5 113.508 688.368 113.328C688.236 113.148 688.068 112.992 687.864 112.86C687.66 112.716 687.432 112.59 687.18 112.482C686.928 112.362 686.676 112.254 686.424 112.158C686.088 112.038 685.74 111.9 685.38 111.744C685.02 111.588 684.69 111.39 684.39 111.15C684.102 110.91 683.862 110.616 683.67 110.268C683.478 109.908 683.382 109.464 683.382 108.936C683.382 107.892 683.718 107.076 684.39 106.488C685.074 105.9 686.01 105.606 687.198 105.606C687.882 105.606 688.476 105.684 688.98 105.84C689.496 105.996 689.928 106.17 690.276 106.362L689.628 108.072C689.328 107.904 688.992 107.76 688.62 107.64C688.26 107.52 687.84 107.46 687.36 107.46C686.184 107.46 685.596 107.886 685.596 108.738C685.596 108.954 685.656 109.146 685.776 109.314C685.896 109.47 686.046 109.614 686.226 109.746C686.418 109.866 686.628 109.974 686.856 110.07C687.096 110.166 687.33 110.256 687.558 110.34C687.906 110.472 688.266 110.622 688.638 110.79C689.022 110.946 689.37 111.162 689.682 111.438C690.006 111.702 690.27 112.038 690.474 112.446C690.678 112.842 690.78 113.346 690.78 113.958C690.78 115.002 690.438 115.812 689.754 116.388C689.082 116.952 688.056 117.234 686.676 117.234C685.752 117.234 685.014 117.138 684.462 116.946C683.91 116.742 683.496 116.556 683.22 116.388L683.868 114.588C684.192 114.78 684.576 114.96 685.02 115.128C685.476 115.296 686.028 115.38 686.676 115.38Z" fill="white"/>
<rect x="634" y="125" width="88" height="7" rx="3.5" fill="#5A606A"/>
<rect x="634" y="125" width="82" height="7" rx="3.5" fill="#29ABE2"/>
<path d="M848.931 33.9339C847.935 33.5911 846.903 33.2668 845.841 32.96C846.016 32.2473 846.176 31.5438 846.318 30.8522C848.658 19.4968 847.128 10.3488 841.905 7.33693C836.897 4.44891 828.707 7.46014 820.435 14.6589C819.639 15.3511 818.842 16.084 818.044 16.8521C817.513 16.344 816.983 15.8528 816.454 15.3831C807.785 7.6857 799.095 4.44191 793.877 7.46253C788.874 10.3589 787.392 18.9589 789.498 29.7205C789.701 30.76 789.939 31.8215 790.208 32.9007C788.978 33.2498 787.791 33.622 786.655 34.0179C776.491 37.5614 770 43.115 770 48.8755C770 54.825 776.968 60.7924 787.554 64.4108C788.39 64.6963 789.257 64.9663 790.15 65.2226C789.86 66.3899 789.608 67.5337 789.396 68.6494C787.388 79.2242 788.956 87.621 793.946 90.4992C799.1 93.4714 807.751 90.4163 816.174 83.0535C816.84 82.4715 817.508 81.8542 818.177 81.2073C819.045 82.0427 819.911 82.8334 820.772 83.575C828.931 90.5959 836.989 93.4309 841.975 90.5448C847.124 87.564 848.797 78.5438 846.625 67.5693C846.459 66.7311 846.266 65.8749 846.049 65.0034C846.656 64.8238 847.253 64.6384 847.834 64.4456C858.84 60.7992 866 54.9044 866 48.8755C866 43.0942 859.3 37.5032 848.931 33.9339ZM846.544 60.5528C846.019 60.7266 845.481 60.8946 844.932 61.0574C843.717 57.2111 842.077 53.1212 840.071 48.8955C841.985 44.7705 843.562 40.7328 844.743 36.9114C845.725 37.1956 846.678 37.4953 847.596 37.8116C856.48 40.8698 861.899 45.3915 861.899 48.8755C861.899 52.5866 856.047 57.4042 846.544 60.5528ZM842.601 68.3658C843.562 73.2185 843.699 77.606 843.063 81.0359C842.491 84.1179 841.341 86.1727 839.92 86.9956C836.894 88.7468 830.424 86.4705 823.447 80.4662C822.647 79.7779 821.841 79.0429 821.033 78.2651C823.738 75.3067 826.442 71.8674 829.08 68.0477C833.721 67.6359 838.106 66.9627 842.082 66.0435C842.278 66.8335 842.452 67.6082 842.601 68.3658ZM802.729 86.693C799.773 87.7369 797.419 87.7668 795.995 86.9463C792.967 85.1997 791.708 78.4578 793.426 69.4143C793.622 68.3786 793.856 67.3147 794.126 66.2272C798.059 67.0968 802.411 67.7226 807.063 68.0997C809.72 71.8373 812.501 75.2728 815.304 78.281C814.692 78.8722 814.082 79.4351 813.475 79.9655C809.75 83.2213 806.018 85.5312 802.729 86.693ZM788.881 60.5301C784.2 58.9302 780.334 56.8507 777.684 54.5816C775.303 52.5426 774.101 50.5182 774.101 48.8755C774.101 45.3798 779.313 40.9211 788.005 37.8906C789.059 37.5228 790.163 37.1763 791.309 36.8508C792.51 40.7584 794.086 44.844 795.988 48.9753C794.062 53.168 792.463 57.3186 791.25 61.2721C790.434 61.0373 789.642 60.7902 788.881 60.5301ZM793.523 28.9329C791.719 19.7127 792.917 12.7572 795.932 11.0119C799.144 9.15252 806.245 11.8035 813.731 18.4499C814.209 18.8747 814.689 19.3193 815.171 19.7793C812.382 22.7743 809.626 26.184 806.993 29.8996C802.478 30.3181 798.156 30.9903 794.183 31.8905C793.933 30.8856 793.711 29.8982 793.523 28.9329ZM834.933 39.1581C833.983 37.5174 833.008 35.9154 832.013 34.3571C835.076 34.7443 838.011 35.2583 840.767 35.8873C839.94 38.539 838.908 41.3116 837.694 44.1538C836.824 42.5005 835.903 40.8336 834.933 39.1581ZM818.046 22.7102C819.937 24.7596 821.832 27.0476 823.695 29.5301C821.817 29.4415 819.917 29.3953 818 29.3953C816.102 29.3953 814.215 29.4404 812.349 29.5276C814.214 27.0681 816.125 24.7831 818.046 22.7102ZM801.051 39.1865C800.102 40.8319 799.198 42.4898 798.341 44.1507C797.146 41.3184 796.125 38.5332 795.29 35.8439C798.029 35.231 800.95 34.7298 803.994 34.35C802.985 35.9226 802.002 37.5363 801.051 39.1862V39.1865ZM804.081 63.6936C800.937 63.3428 797.972 62.8674 795.234 62.2714C796.082 59.5341 797.126 56.6894 798.345 53.7961C799.205 55.4559 800.112 57.1144 801.067 58.7634H801.067C802.04 60.4433 803.047 62.0889 804.081 63.6936ZM818.159 75.3299C816.216 73.2327 814.277 70.9129 812.383 68.4175C814.221 68.4896 816.095 68.5266 818 68.5266C819.957 68.5266 821.891 68.4825 823.795 68.3977C821.926 70.938 820.038 73.2614 818.159 75.3299ZM837.734 53.6487C839.017 56.5732 840.098 59.403 840.957 62.0937C838.174 62.7286 835.169 63.2401 832.002 63.6201C832.999 62.0408 833.982 60.4113 834.949 58.7352C835.927 57.0394 836.856 55.341 837.734 53.6487ZM831.397 56.6864C829.896 59.2883 828.355 61.7722 826.791 64.1169C823.943 64.3205 821 64.4255 818 64.4255C815.013 64.4255 812.107 64.3327 809.308 64.151C807.681 61.7756 806.107 59.2844 804.616 56.7088H804.616C803.129 54.1401 801.76 51.5498 800.52 48.9739C801.76 46.3921 803.125 43.7989 804.604 41.2348L804.603 41.2353C806.086 38.6645 807.646 36.1854 809.258 33.8248C812.113 33.609 815.041 33.4964 818 33.4964H818C820.972 33.4964 823.904 33.6099 826.758 33.8276C828.345 36.1708 829.895 38.6419 831.383 41.2131C832.888 43.8132 834.271 46.3892 835.522 48.9157C834.275 51.4855 832.895 54.0875 831.397 56.6864ZM839.857 10.8898C843.071 12.7437 844.322 20.2203 842.302 30.0245C842.173 30.6501 842.028 31.2873 841.87 31.933C837.888 31.0141 833.563 30.3302 829.034 29.9054C826.397 26.149 823.663 22.734 820.919 19.7774C821.657 19.0678 822.394 18.3911 823.127 17.7525C830.215 11.5846 836.839 9.14945 839.857 10.8898ZM818 40.303C822.734 40.303 826.572 44.141 826.572 48.8755C826.572 53.6099 822.734 57.448 818 57.448C813.266 57.448 809.428 53.6099 809.428 48.8755C809.428 44.141 813.266 40.303 818 40.303Z" fill="#00D8FF"/>
<path d="M799.352 105.732C799.988 105.732 800.564 105.804 801.08 105.948C801.596 106.092 802.04 106.314 802.412 106.614C802.784 106.914 803.066 107.298 803.258 107.766C803.462 108.222 803.564 108.762 803.564 109.386C803.564 110.034 803.432 110.622 803.168 111.15C802.904 111.678 802.466 112.08 801.854 112.356C802.058 112.668 802.274 113.016 802.502 113.4C802.73 113.772 802.952 114.168 803.168 114.588C803.384 114.996 803.588 115.41 803.78 115.83C803.984 116.238 804.158 116.628 804.302 117H801.98C801.704 116.28 801.38 115.59 801.008 114.93C800.648 114.258 800.258 113.58 799.838 112.896H798.686V117H796.472V106.02C796.688 105.972 796.922 105.93 797.174 105.894C797.438 105.846 797.702 105.816 797.966 105.804C798.23 105.78 798.482 105.762 798.722 105.75C798.962 105.738 799.172 105.732 799.352 105.732ZM801.314 109.368C801.314 108.78 801.134 108.348 800.774 108.072C800.414 107.796 799.94 107.658 799.352 107.658C799.268 107.658 799.166 107.664 799.046 107.676C798.926 107.676 798.806 107.688 798.686 107.712V111.06H799.172C799.928 111.06 800.474 110.916 800.81 110.628C801.146 110.328 801.314 109.908 801.314 109.368ZM805.634 117V105.858H812.384V107.694H807.848V110.196H811.79V112.032H807.848V115.164H812.78V117H805.634ZM819.962 117L819.44 114.426H816.47L815.966 117H813.662C814.19 114.804 814.724 112.806 815.264 111.006C815.804 109.194 816.326 107.478 816.83 105.858H819.242C819.77 107.49 820.292 109.224 820.808 111.06C821.336 112.884 821.846 114.864 822.338 117H819.962ZM817.982 108.018C817.862 108.438 817.748 108.84 817.64 109.224C817.544 109.596 817.448 109.968 817.352 110.34C817.268 110.7 817.184 111.066 817.1 111.438C817.028 111.81 816.956 112.194 816.884 112.59H819.062C818.99 112.194 818.918 111.81 818.846 111.438C818.774 111.066 818.69 110.7 818.594 110.34C818.51 109.968 818.414 109.596 818.306 109.224C818.21 108.84 818.102 108.438 817.982 108.018ZM827.828 117.234C826.256 117.234 825.056 116.73 824.228 115.722C823.4 114.714 822.986 113.28 822.986 111.42C822.986 110.496 823.112 109.674 823.364 108.954C823.616 108.234 823.964 107.628 824.408 107.136C824.864 106.632 825.398 106.254 826.01 106.002C826.634 105.738 827.312 105.606 828.044 105.606C828.44 105.606 828.794 105.642 829.106 105.714C829.43 105.774 829.712 105.846 829.952 105.93C830.192 106.014 830.39 106.104 830.546 106.2C830.714 106.296 830.84 106.368 830.924 106.416L830.348 108.18C830.072 108 829.736 107.85 829.34 107.73C828.956 107.598 828.512 107.532 828.008 107.532C827.66 107.532 827.318 107.598 826.982 107.73C826.658 107.85 826.364 108.06 826.1 108.36C825.848 108.648 825.638 109.038 825.47 109.53C825.314 110.022 825.236 110.634 825.236 111.366C825.236 112.638 825.452 113.616 825.884 114.3C826.328 114.972 827.048 115.308 828.044 115.308C828.62 115.308 829.094 115.242 829.466 115.11C829.85 114.978 830.156 114.846 830.384 114.714L830.942 116.46C830.63 116.652 830.204 116.832 829.664 117C829.136 117.156 828.524 117.234 827.828 117.234ZM840.05 105.858V107.694H837.116V117H834.884V107.694H831.95V105.858H840.05Z" fill="white"/>
<rect x="774" y="125" width="88" height="7" rx="3.5" fill="#5A606A"/>
<rect x="774" y="125" width="71" height="7" rx="3.5" fill="#00D8FF"/>
<path d="M987.338 77.112C990.804 75.649 994.936 75.1166 1000.27 75.2492C1000.12 74.2536 998.213 73.0711 996.817 72.2048C996.349 71.914 995.937 71.6588 995.669 71.4583C993.536 69.9285 991.27 68.3316 989.004 66.9353C988.274 66.4902 987.223 66.1188 986.212 65.7614C985.561 65.5314 984.927 65.3073 984.405 65.073C983.872 64.8562 983.145 64.6393 982.361 64.4052C980.499 63.8491 978.31 63.1955 977.606 62.213C975.794 59.8616 974.529 57.0184 973.266 54.1791C973.136 53.8858 973.005 53.5925 972.874 53.2999C972.213 51.7917 971.477 50.2538 970.738 48.7073C969.912 46.9799 969.08 45.2418 968.342 43.5221C968.02 42.8217 967.775 42.1594 967.534 41.5075C967.226 40.674 966.924 39.8574 966.476 38.9992C961.61 29.6208 954.412 21.7717 945.68 16.2511C942.813 14.4552 939.615 12.7919 936.082 11.6615C935.003 11.3386 933.808 11.2866 932.601 11.2342C931.571 11.1894 930.532 11.1442 929.55 10.93H928.15C927.342 10.7059 926.624 10.0592 925.957 9.45766C925.634 9.16622 925.322 8.88537 925.018 8.6683C922.951 7.27166 920.885 6.33986 918.419 5.34257C917.552 4.94365 915.086 4.01228 914.22 4.74419C913.686 4.87731 913.42 5.07677 913.286 5.6088C912.753 6.40706 913.22 7.60423 913.553 8.33573C914.214 9.74226 915.049 10.7713 915.905 11.8257C916.345 12.367 916.79 12.915 917.219 13.5242C917.424 13.8131 917.638 14.1086 917.856 14.409C918.839 15.7682 919.897 17.229 920.552 18.6455C921.476 20.6328 922.135 22.7336 922.792 24.8267C923.366 26.6571 923.938 28.4816 924.684 30.2192C925.284 31.6163 926.217 33.2124 927.084 34.4763C927.355 34.8462 927.71 35.1794 928.068 35.5168C928.677 36.0895 929.298 36.6741 929.55 37.4695C930.198 38.5474 929.008 41.6344 928.285 43.51C928.116 43.949 927.972 44.3216 927.884 44.5866C926.15 50.0404 926.484 57.6233 928.483 62.3456C928.555 62.5121 928.626 62.6811 928.697 62.8514C929.425 64.5872 930.207 66.4504 932.149 66.9353C932.209 66.8751 932.215 66.8558 932.228 66.8465C932.244 66.8353 932.27 66.8388 932.416 66.8022C932.513 66.0377 932.596 65.2789 932.678 64.5308C932.988 61.6995 933.281 59.021 934.282 56.7587C934.759 55.5905 935.546 54.6474 936.313 53.7283C936.725 53.2343 937.132 52.7472 937.481 52.2358C937.904 52.489 938.059 53.0635 938.218 53.6537C938.309 53.9934 938.402 54.3383 938.548 54.6301C938.611 54.7799 938.674 54.9307 938.738 55.0824C939.551 57.0194 940.425 59.1033 941.414 61.0154C943.613 65.2725 946.08 69.396 948.879 73.1211C949.812 74.4514 951.145 75.9148 952.345 77.112C952.528 77.2713 952.718 77.4073 952.905 77.5412C953.265 77.7986 953.615 78.0484 953.878 78.4423H954.011V78.6421C952.746 78.1789 951.774 77.183 950.826 76.2108C950.275 75.6467 949.733 75.0907 949.145 74.6513C946.146 72.3896 942.547 68.9971 940.481 65.7381C939.83 64.3392 939.141 62.9776 938.444 61.5972C938.212 61.1401 937.98 60.6808 937.748 60.2175C937.748 60.2175 937.748 60.1508 937.748 60.0844C937.493 60.4234 937.455 60.7622 937.409 61.1701C937.383 61.4023 937.354 61.657 937.281 61.9467C937.034 62.8951 936.912 63.8812 936.794 64.8343C936.497 67.2237 936.226 69.4053 934.082 70.2611C930.683 71.6581 928.15 67.999 927.084 66.3365C923.684 60.8159 922.751 51.5039 925.151 43.9878C925.336 43.4093 925.465 42.7905 925.594 42.1735C925.835 41.017 926.076 39.8667 926.684 38.9992C926.55 38.1999 926.09 37.7858 925.64 37.3811C925.416 37.1797 925.195 36.9806 925.018 36.7375C924.084 35.474 923.285 34.0106 922.551 32.614C921.486 30.5378 920.652 28.1531 919.844 25.842C919.591 25.1171 919.34 24.3995 919.085 23.7009C918.858 23.1172 918.71 22.5333 918.563 21.9572C918.41 21.3517 918.258 20.7547 918.019 20.1757C917.389 18.8133 916.346 17.4511 915.377 16.1865C915.116 15.8457 914.86 15.5119 914.619 15.1871C914.36 14.8152 914.016 14.3842 913.633 13.9038C911.753 11.5478 908.926 8.00276 910.42 4.41163C913.22 -2.4393 923.018 2.74834 926.817 5.14312C927.197 5.38683 927.599 5.74064 928.014 6.10596C928.618 6.63825 929.251 7.19497 929.883 7.47113C930.716 7.50452 931.55 7.5544 932.383 7.60427C933.216 7.65413 934.049 7.70398 934.882 7.73736C935.155 7.80107 935.426 7.86378 935.696 7.9261C938.522 8.57922 941.162 9.1893 943.414 10.4643C954.878 17.1825 962.343 24.0334 969.208 35.3409C970.14 36.8626 970.776 38.4651 971.424 40.0971C971.795 41.0328 972.17 41.9783 972.607 42.9237C974.274 46.7815 976.141 50.8383 978.073 54.497C978.316 54.982 978.543 55.4827 978.771 55.9843C979.355 57.2717 979.942 58.5657 980.806 59.6187C981.116 60.0615 981.811 60.2977 982.476 60.524C982.811 60.6378 983.138 60.749 983.405 60.8827C984.267 61.3257 985.201 61.728 986.142 62.1336C987.602 62.7627 989.081 63.3995 990.337 64.2084C994.203 66.6028 997.936 69.4624 1001.33 72.3896C1002.02 73.0031 1002.59 73.7536 1003.16 74.503C1003.64 75.135 1004.12 75.7663 1004.67 76.3142V76.9125C1003.6 77.2451 1002.53 77.5777 1001.47 77.8439C1000.31 78.1415 999.214 78.2582 998.128 78.3739C997.031 78.4909 995.942 78.607 994.803 78.908C994.659 78.9489 994.512 78.9913 994.362 79.0345C993.05 79.4123 991.52 79.853 990.204 79.9725C990.27 80.0388 990.337 80.1051 990.337 80.1051C990.98 81.9301 993.711 83.499 995.95 84.7848C996.73 85.233 997.451 85.6468 998.002 86.0251C1000.6 87.8874 1003 90.1491 1004.93 92.7429C1005.27 93.0745 1005.6 93.3896 1005.93 93.7047C1006.27 94.0216 1006.6 94.3384 1006.93 94.672C1007.16 94.994 1007.31 95.3628 1007.45 95.7256C1007.61 96.112 1007.76 96.4917 1008 96.8005V97C1007.42 96.7922 1007.02 96.3765 1006.62 95.9642C1006.38 95.7166 1006.14 95.4702 1005.87 95.2708C1005.24 94.8437 1004.61 94.3798 1003.98 93.916C1003.15 93.2964 1002.31 92.6767 1001.47 92.1445C1000.18 91.3316 998.785 90.6912 997.385 90.0476C996.035 89.4273 994.679 88.8041 993.403 88.0205C991.937 87.0892 990.537 86.0251 989.137 84.961C987.871 84.0297 986.472 82.2333 985.671 80.9034C985.47 80.5872 985.343 80.2462 985.221 79.9178C985.06 79.4865 984.908 79.0772 984.605 78.7749C984.704 77.8299 985.624 77.5914 986.5 77.3644C986.795 77.2878 987.086 77.2126 987.338 77.112Z" fill="#00546B"/>
<path d="M929.55 17.7809C930.349 17.5814 931.149 17.4479 932.282 17.4479C932.493 17.6589 932.757 17.8384 933.023 18.0197C933.429 18.2959 933.84 18.5762 934.082 18.9781C934.23 19.185 934.325 19.3918 934.421 19.5987C934.54 19.8575 934.659 20.1163 934.882 20.3751C934.882 21.9712 934.415 23.0353 933.482 23.7008C933.482 23.7008 933.415 23.7672 933.349 23.834C933.082 23.3025 932.833 22.771 932.583 22.2396C932.333 21.7066 932.083 21.1737 931.815 20.6409C931.556 20.2784 931.256 19.9461 930.955 19.6126C930.483 19.0896 930.009 18.5637 929.683 17.914H929.55V17.7809Z" fill="#00546B"/>
<path d="M987.338 77.112C990.804 75.649 994.936 75.1166 1000.27 75.2492C1000.12 74.2536 998.213 73.0711 996.817 72.2048C996.349 71.914 995.937 71.6588 995.669 71.4583C993.536 69.9285 991.27 68.3316 989.004 66.9353C988.274 66.4902 987.223 66.1188 986.212 65.7614C985.561 65.5314 984.927 65.3073 984.405 65.073C983.872 64.8562 983.145 64.6393 982.361 64.4052C980.499 63.8491 978.31 63.1955 977.606 62.213C975.794 59.8616 974.529 57.0184 973.266 54.1791C973.136 53.8858 973.005 53.5925 972.874 53.2999C972.213 51.7917 971.477 50.2538 970.738 48.7073C969.912 46.9799 969.08 45.2418 968.342 43.5221C968.02 42.8217 967.775 42.1594 967.534 41.5075C967.226 40.674 966.924 39.8574 966.476 38.9992C961.61 29.6208 954.412 21.7717 945.68 16.2511C942.813 14.4552 939.615 12.7919 936.082 11.6615C935.003 11.3386 933.808 11.2866 932.601 11.2342C931.571 11.1894 930.532 11.1442 929.55 10.93H928.15C927.342 10.7059 926.624 10.0592 925.957 9.45766C925.634 9.16622 925.322 8.88537 925.018 8.6683C922.951 7.27166 920.885 6.33986 918.419 5.34257C917.552 4.94365 915.086 4.01228 914.22 4.74419C913.686 4.87731 913.42 5.07677 913.286 5.6088C912.753 6.40706 913.22 7.60423 913.553 8.33573C914.214 9.74226 915.049 10.7713 915.905 11.8257C916.345 12.367 916.79 12.915 917.219 13.5242C917.424 13.8131 917.638 14.1086 917.856 14.409C918.839 15.7682 919.897 17.229 920.552 18.6455C921.476 20.6328 922.135 22.7336 922.792 24.8267C923.366 26.6571 923.938 28.4816 924.684 30.2192C925.284 31.6163 926.217 33.2124 927.084 34.4763C927.355 34.8462 927.71 35.1794 928.068 35.5168C928.677 36.0895 929.298 36.6741 929.55 37.4695C930.198 38.5474 929.008 41.6344 928.285 43.51C928.116 43.949 927.972 44.3216 927.884 44.5866C926.15 50.0404 926.484 57.6233 928.483 62.3456C928.555 62.5121 928.626 62.6811 928.697 62.8514C929.425 64.5872 930.207 66.4504 932.149 66.9353C932.209 66.8751 932.215 66.8558 932.228 66.8465C932.244 66.8353 932.27 66.8388 932.416 66.8022C932.513 66.0377 932.596 65.2789 932.678 64.5308C932.988 61.6995 933.281 59.021 934.282 56.7587C934.759 55.5905 935.546 54.6474 936.313 53.7283C936.725 53.2343 937.132 52.7472 937.481 52.2358C937.904 52.489 938.059 53.0635 938.218 53.6537C938.309 53.9934 938.402 54.3383 938.548 54.6301C938.611 54.7799 938.674 54.9307 938.738 55.0824C939.551 57.0194 940.425 59.1033 941.414 61.0154C943.613 65.2725 946.08 69.396 948.879 73.1211C949.812 74.4514 951.145 75.9148 952.345 77.112C952.528 77.2713 952.718 77.4073 952.905 77.5412C953.265 77.7986 953.615 78.0484 953.878 78.4423H954.011V78.6421C952.746 78.1789 951.774 77.183 950.826 76.2108C950.275 75.6467 949.733 75.0907 949.145 74.6513C946.146 72.3896 942.547 68.9971 940.481 65.7381C939.83 64.3392 939.141 62.9776 938.444 61.5972C938.212 61.1401 937.98 60.6808 937.748 60.2175C937.748 60.2175 937.748 60.1508 937.748 60.0844C937.493 60.4234 937.455 60.7622 937.409 61.1701C937.383 61.4023 937.354 61.657 937.281 61.9467C937.034 62.8951 936.912 63.8812 936.794 64.8343C936.497 67.2237 936.226 69.4053 934.082 70.2611C930.683 71.6581 928.15 67.999 927.084 66.3365C923.684 60.8159 922.751 51.5039 925.151 43.9878C925.336 43.4093 925.465 42.7905 925.594 42.1735C925.835 41.017 926.076 39.8667 926.684 38.9992C926.55 38.1999 926.09 37.7858 925.64 37.3811C925.416 37.1797 925.195 36.9806 925.018 36.7375C924.084 35.474 923.285 34.0106 922.551 32.614C921.486 30.5378 920.652 28.1531 919.844 25.842C919.591 25.1171 919.34 24.3995 919.085 23.7009C918.858 23.1172 918.71 22.5333 918.563 21.9572C918.41 21.3517 918.258 20.7547 918.019 20.1757C917.389 18.8133 916.346 17.4511 915.377 16.1865C915.116 15.8457 914.86 15.5119 914.619 15.1871C914.36 14.8152 914.016 14.3842 913.633 13.9038C911.753 11.5478 908.926 8.00276 910.42 4.41163C913.22 -2.4393 923.018 2.74834 926.817 5.14312C927.197 5.38683 927.599 5.74064 928.014 6.10596C928.618 6.63825 929.251 7.19497 929.883 7.47113C930.716 7.50452 931.55 7.5544 932.383 7.60427C933.216 7.65413 934.049 7.70398 934.882 7.73736C935.155 7.80107 935.426 7.86378 935.696 7.9261C938.522 8.57922 941.162 9.1893 943.414 10.4643C954.878 17.1825 962.343 24.0334 969.208 35.3409C970.14 36.8626 970.776 38.4651 971.424 40.0971C971.795 41.0328 972.17 41.9783 972.607 42.9237C974.274 46.7815 976.141 50.8383 978.073 54.497C978.316 54.982 978.543 55.4827 978.771 55.9843C979.355 57.2717 979.942 58.5657 980.806 59.6187C981.116 60.0615 981.811 60.2977 982.476 60.524C982.811 60.6378 983.138 60.749 983.405 60.8827C984.267 61.3257 985.201 61.728 986.142 62.1336C987.602 62.7627 989.081 63.3995 990.337 64.2084C994.203 66.6028 997.936 69.4624 1001.33 72.3896C1002.02 73.0031 1002.59 73.7536 1003.16 74.503C1003.64 75.135 1004.12 75.7663 1004.67 76.3142V76.9125C1003.6 77.2451 1002.53 77.5777 1001.47 77.8439C1000.31 78.1415 999.214 78.2582 998.128 78.3739C997.031 78.4909 995.942 78.607 994.803 78.908C994.659 78.9489 994.512 78.9913 994.362 79.0345C993.05 79.4123 991.52 79.853 990.204 79.9725C990.27 80.0388 990.337 80.1051 990.337 80.1051C990.98 81.9301 993.711 83.499 995.95 84.7848C996.73 85.233 997.451 85.6468 998.002 86.0251C1000.6 87.8874 1003 90.1491 1004.93 92.7429C1005.27 93.0745 1005.6 93.3896 1005.93 93.7047C1006.27 94.0216 1006.6 94.3384 1006.93 94.672C1007.16 94.994 1007.31 95.3628 1007.45 95.7256C1007.61 96.112 1007.76 96.4917 1008 96.8005V97C1007.42 96.7922 1007.02 96.3765 1006.62 95.9642C1006.38 95.7166 1006.14 95.4702 1005.87 95.2708C1005.24 94.8437 1004.61 94.3798 1003.98 93.916C1003.15 93.2964 1002.31 92.6767 1001.47 92.1445C1000.18 91.3316 998.785 90.6912 997.385 90.0476C996.035 89.4273 994.679 88.8041 993.403 88.0205C991.937 87.0892 990.537 86.0251 989.137 84.961C987.871 84.0297 986.472 82.2333 985.671 80.9034C985.47 80.5872 985.343 80.2462 985.221 79.9178C985.06 79.4865 984.908 79.0772 984.605 78.7749C984.704 77.8299 985.624 77.5914 986.5 77.3644C986.795 77.2878 987.086 77.2126 987.338 77.112Z" stroke="white" stroke-width="0.6"/>
<path d="M929.55 17.7809C930.349 17.5814 931.149 17.4479 932.282 17.4479C932.493 17.6589 932.757 17.8384 933.023 18.0197C933.429 18.2959 933.84 18.5762 934.082 18.9781C934.23 19.185 934.325 19.3918 934.421 19.5987C934.54 19.8575 934.659 20.1163 934.882 20.3751C934.882 21.9712 934.415 23.0353 933.482 23.7008C933.482 23.7008 933.415 23.7672 933.349 23.834C933.082 23.3025 932.833 22.771 932.583 22.2396C932.333 21.7066 932.083 21.1737 931.815 20.6409C931.556 20.2784 931.256 19.9461 930.955 19.6126C930.483 19.0896 930.009 18.5637 929.683 17.914H929.55V17.7809Z" stroke="white" stroke-width="0.6"/>
<path d="M939.398 105.858C939.482 106.11 939.584 106.434 939.704 106.83C939.836 107.226 939.974 107.652 940.118 108.108C940.262 108.564 940.406 109.026 940.55 109.494C940.694 109.962 940.832 110.394 940.964 110.79C941.108 110.346 941.258 109.89 941.414 109.422C941.57 108.942 941.72 108.486 941.864 108.054C942.008 107.61 942.14 107.196 942.26 106.812C942.38 106.428 942.488 106.11 942.584 105.858H944.42C944.504 106.83 944.582 107.778 944.654 108.702C944.738 109.626 944.804 110.544 944.852 111.456C944.912 112.356 944.96 113.268 944.996 114.192C945.032 115.104 945.062 116.04 945.086 117H943.052L943.16 108.342L941.792 113.058H940.172L938.858 108.342L938.948 117H936.914C936.95 116.088 936.986 115.14 937.022 114.156C937.07 113.172 937.118 112.194 937.166 111.222C937.214 110.25 937.268 109.308 937.328 108.396C937.4 107.484 937.478 106.638 937.562 105.858H939.398ZM950.072 110.952C950.204 110.676 950.354 110.328 950.522 109.908C950.702 109.488 950.876 109.044 951.044 108.576C951.224 108.108 951.392 107.634 951.548 107.154C951.716 106.674 951.866 106.242 951.998 105.858H954.284C954.056 106.47 953.828 107.064 953.6 107.64C953.372 108.216 953.132 108.786 952.88 109.35C952.628 109.914 952.358 110.478 952.07 111.042C951.782 111.594 951.47 112.164 951.134 112.752V117H948.902V112.77C948.242 111.606 947.66 110.472 947.156 109.368C946.664 108.252 946.19 107.082 945.734 105.858H948.11C948.386 106.722 948.692 107.604 949.028 108.504C949.364 109.392 949.712 110.208 950.072 110.952ZM958.676 115.38C959.048 115.38 959.354 115.344 959.594 115.272C959.846 115.188 960.044 115.08 960.188 114.948C960.332 114.804 960.428 114.648 960.476 114.48C960.536 114.3 960.566 114.12 960.566 113.94C960.566 113.712 960.5 113.508 960.368 113.328C960.236 113.148 960.068 112.992 959.864 112.86C959.66 112.716 959.432 112.59 959.18 112.482C958.928 112.362 958.676 112.254 958.424 112.158C958.088 112.038 957.74 111.9 957.38 111.744C957.02 111.588 956.69 111.39 956.39 111.15C956.102 110.91 955.862 110.616 955.67 110.268C955.478 109.908 955.382 109.464 955.382 108.936C955.382 107.892 955.718 107.076 956.39 106.488C957.074 105.9 958.01 105.606 959.198 105.606C959.882 105.606 960.476 105.684 960.98 105.84C961.496 105.996 961.928 106.17 962.276 106.362L961.628 108.072C961.328 107.904 960.992 107.76 960.62 107.64C960.26 107.52 959.84 107.46 959.36 107.46C958.184 107.46 957.596 107.886 957.596 108.738C957.596 108.954 957.656 109.146 957.776 109.314C957.896 109.47 958.046 109.614 958.226 109.746C958.418 109.866 958.628 109.974 958.856 110.07C959.096 110.166 959.33 110.256 959.558 110.34C959.906 110.472 960.266 110.622 960.638 110.79C961.022 110.946 961.37 111.162 961.682 111.438C962.006 111.702 962.27 112.038 962.474 112.446C962.678 112.842 962.78 113.346 962.78 113.958C962.78 115.002 962.438 115.812 961.754 116.388C961.082 116.952 960.056 117.234 958.676 117.234C957.752 117.234 957.014 117.138 956.462 116.946C955.91 116.742 955.496 116.556 955.22 116.388L955.868 114.588C956.192 114.78 956.576 114.96 957.02 115.128C957.476 115.296 958.028 115.38 958.676 115.38ZM963.986 111.474C963.986 109.554 964.34 108.108 965.048 107.136C965.756 106.152 966.74 105.66 968 105.66C969.308 105.66 970.304 106.152 970.988 107.136C971.672 108.108 972.014 109.554 972.014 111.474C972.014 113.154 971.744 114.48 971.204 115.452C970.664 116.412 969.884 116.994 968.864 117.198C968.996 117.498 969.314 117.744 969.818 117.936C970.334 118.14 971.036 118.32 971.924 118.476L971.456 120.06C970.052 119.868 968.99 119.544 968.27 119.088C967.562 118.644 967.142 118.002 967.01 117.162C966.038 116.922 965.288 116.328 964.76 115.38C964.244 114.42 963.986 113.118 963.986 111.474ZM966.236 111.474C966.236 112.014 966.254 112.518 966.29 112.986C966.338 113.454 966.422 113.868 966.542 114.228C966.674 114.576 966.854 114.852 967.082 115.056C967.31 115.26 967.616 115.362 968 115.362C968.372 115.362 968.672 115.26 968.9 115.056C969.14 114.852 969.32 114.576 969.44 114.228C969.572 113.868 969.656 113.454 969.692 112.986C969.74 112.518 969.764 112.014 969.764 111.474C969.764 110.934 969.74 110.43 969.692 109.962C969.656 109.482 969.572 109.068 969.44 108.72C969.32 108.372 969.146 108.096 968.918 107.892C968.69 107.688 968.384 107.586 968 107.586C967.616 107.586 967.31 107.688 967.082 107.892C966.854 108.096 966.674 108.378 966.542 108.738C966.422 109.086 966.338 109.494 966.29 109.962C966.254 110.43 966.236 110.934 966.236 111.474ZM980.78 117H973.778V105.858H976.01V115.164H980.78V117Z" fill="white"/>
<rect x="915" y="125" width="88" height="7" rx="3.5" fill="#5A606A"/>
<rect x="915" y="125" width="26" height="7" rx="3.5" fill="#00546B"/>
<path fill-rule="evenodd" clip-rule="evenodd" d="M1100.08 95.701C1098.8 95.701 1097.59 95.3572 1096.47 94.7554L1085.04 87.9639C1083.32 87.0183 1084.18 86.6744 1084.7 86.5025C1087.02 85.7288 1087.45 85.5568 1089.85 84.1814C1090.11 84.0094 1090.46 84.0954 1090.71 84.2673L1099.48 89.5114C1099.83 89.6833 1100.26 89.6833 1100.51 89.5114L1134.82 69.6528C1135.16 69.4808 1135.33 69.137 1135.33 68.7071V29.0759C1135.33 28.6461 1135.16 28.3022 1134.82 28.1303L1100.51 8.35767C1100.17 8.18574 1099.74 8.18574 1099.48 8.35767L1065.18 28.1303C1064.84 28.3022 1064.67 28.7321 1064.67 29.0759V68.7071C1064.67 69.051 1064.84 69.4808 1065.18 69.6528L1074.55 75.0688C1079.62 77.6478 1082.81 74.6389 1082.81 71.63V32.5146C1082.81 31.9988 1083.24 31.483 1083.84 31.483H1088.22C1088.74 31.483 1089.25 31.9129 1089.25 32.5146V71.63C1089.25 78.4215 1085.56 82.376 1079.11 82.376C1077.13 82.376 1075.58 82.376 1071.2 80.2268L1062.17 75.0688C1059.94 73.7792 1058.56 71.3721 1058.56 68.7931V29.1619C1058.56 26.5829 1059.94 24.1758 1062.17 22.8862L1096.47 3.02766C1098.62 1.82411 1101.55 1.82411 1103.7 3.02766L1138 22.8862C1140.23 24.1758 1141.61 26.5829 1141.61 29.1619V68.7931C1141.61 71.3721 1140.23 73.7792 1138 75.0688L1103.7 94.9273C1102.58 95.4431 1101.29 95.701 1100.08 95.701ZM1110.66 68.4492C1095.61 68.4492 1092.52 61.5718 1092.52 55.726C1092.52 55.2102 1092.95 54.6944 1093.55 54.6944H1098.02C1098.54 54.6944 1098.97 55.0382 1098.97 55.554C1099.66 60.1103 1101.63 62.3455 1110.75 62.3455C1117.97 62.3455 1121.06 60.7121 1121.06 56.8436C1121.06 54.6084 1120.2 52.975 1108.94 51.8574C1099.57 50.9118 1093.72 48.8485 1093.72 41.3693C1093.72 34.4059 1099.57 30.2795 1109.37 30.2795C1120.37 30.2795 1125.79 34.0621 1126.48 42.315C1126.48 42.5729 1126.39 42.8308 1126.22 43.0887C1126.05 43.2606 1125.79 43.4326 1125.53 43.4326H1121.06C1120.63 43.4326 1120.2 43.0887 1120.12 42.6589C1119.08 37.9306 1116.42 36.3832 1109.37 36.3832C1101.46 36.3832 1100.51 39.1342 1100.51 41.1974C1100.51 43.6905 1101.63 44.4642 1112.29 45.8397C1122.87 47.2152 1127.85 49.1924 1127.85 56.5857C1127.77 64.1508 1121.58 68.4492 1110.66 68.4492Z" fill="#539E43"/>
<path d="M1079.39 117C1078.89 115.764 1078.33 114.534 1077.73 113.31C1077.15 112.074 1076.51 110.838 1075.83 109.602V117H1073.83V105.858H1075.61C1075.95 106.386 1076.28 106.962 1076.62 107.586C1076.95 108.198 1077.28 108.81 1077.59 109.422C1077.91 110.034 1078.21 110.628 1078.47 111.204C1078.75 111.78 1078.98 112.284 1079.17 112.716V105.858H1081.17V117H1079.39ZM1084.74 111.42C1084.74 111.96 1084.75 112.47 1084.79 112.95C1084.84 113.418 1084.92 113.826 1085.04 114.174C1085.17 114.522 1085.35 114.798 1085.58 115.002C1085.81 115.206 1086.12 115.308 1086.5 115.308C1086.87 115.308 1087.17 115.206 1087.4 115.002C1087.64 114.798 1087.82 114.522 1087.94 114.174C1088.07 113.814 1088.16 113.4 1088.19 112.932C1088.24 112.464 1088.26 111.96 1088.26 111.42C1088.26 110.88 1088.24 110.376 1088.19 109.908C1088.16 109.428 1088.07 109.014 1087.94 108.666C1087.82 108.318 1087.65 108.042 1087.42 107.838C1087.19 107.634 1086.88 107.532 1086.5 107.532C1086.12 107.532 1085.81 107.634 1085.58 107.838C1085.35 108.042 1085.17 108.324 1085.04 108.684C1084.92 109.032 1084.84 109.44 1084.79 109.908C1084.75 110.376 1084.74 110.88 1084.74 111.42ZM1082.49 111.42C1082.49 109.5 1082.84 108.054 1083.55 107.082C1084.26 106.098 1085.24 105.606 1086.5 105.606C1087.81 105.606 1088.8 106.098 1089.49 107.082C1090.17 108.054 1090.51 109.5 1090.51 111.42C1090.51 113.34 1090.17 114.792 1089.47 115.776C1088.77 116.748 1087.79 117.234 1086.52 117.234C1085.21 117.234 1084.21 116.748 1083.51 115.776C1082.83 114.792 1082.49 113.34 1082.49 111.42ZM1094.19 115.2C1094.25 115.212 1094.31 115.218 1094.38 115.218C1094.46 115.218 1094.52 115.218 1094.58 115.218C1095.09 115.218 1095.51 115.122 1095.84 114.93C1096.19 114.738 1096.47 114.474 1096.67 114.138C1096.89 113.802 1097.04 113.406 1097.12 112.95C1097.22 112.482 1097.26 111.972 1097.26 111.42C1097.26 110.94 1097.23 110.472 1097.16 110.016C1097.08 109.56 1096.96 109.158 1096.78 108.81C1096.6 108.462 1096.35 108.186 1096.04 107.982C1095.73 107.766 1095.33 107.658 1094.83 107.658C1094.74 107.658 1094.63 107.664 1094.51 107.676C1094.39 107.676 1094.28 107.688 1094.19 107.712V115.2ZM1099.51 111.42C1099.51 112.452 1099.38 113.334 1099.12 114.066C1098.87 114.786 1098.51 115.374 1098.06 115.83C1097.6 116.286 1097.05 116.622 1096.42 116.838C1095.79 117.042 1095.1 117.144 1094.35 117.144C1093.95 117.144 1093.56 117.12 1093.18 117.072C1092.81 117.036 1092.4 116.97 1091.97 116.874V106.002C1092.48 105.894 1092.95 105.822 1093.39 105.786C1093.84 105.75 1094.25 105.732 1094.64 105.732C1095.37 105.732 1096.03 105.84 1096.63 106.056C1097.25 106.272 1097.76 106.614 1098.18 107.082C1098.6 107.538 1098.93 108.126 1099.15 108.846C1099.39 109.554 1099.51 110.412 1099.51 111.42ZM1101.13 117V105.858H1107.88V107.694H1103.35V110.196H1107.29V112.032H1103.35V115.164H1108.28V117H1101.13ZM1116.88 113.274C1116.88 113.814 1116.81 114.324 1116.67 114.804C1116.54 115.284 1116.31 115.704 1115.98 116.064C1115.67 116.424 1115.26 116.712 1114.76 116.928C1114.26 117.132 1113.64 117.234 1112.92 117.234C1112.17 117.234 1111.54 117.138 1111.03 116.946C1110.53 116.754 1110.1 116.52 1109.76 116.244L1110.6 114.48C1110.9 114.672 1111.23 114.858 1111.59 115.038C1111.96 115.218 1112.34 115.308 1112.73 115.308C1113.3 115.308 1113.76 115.158 1114.11 114.858C1114.47 114.546 1114.65 113.976 1114.65 113.148V107.694H1110.93V105.858H1116.88V113.274ZM1122.18 115.38C1122.55 115.38 1122.85 115.344 1123.09 115.272C1123.35 115.188 1123.54 115.08 1123.69 114.948C1123.83 114.804 1123.93 114.648 1123.98 114.48C1124.04 114.3 1124.07 114.12 1124.07 113.94C1124.07 113.712 1124 113.508 1123.87 113.328C1123.74 113.148 1123.57 112.992 1123.36 112.86C1123.16 112.716 1122.93 112.59 1122.68 112.482C1122.43 112.362 1122.18 112.254 1121.92 112.158C1121.59 112.038 1121.24 111.9 1120.88 111.744C1120.52 111.588 1120.19 111.39 1119.89 111.15C1119.6 110.91 1119.36 110.616 1119.17 110.268C1118.98 109.908 1118.88 109.464 1118.88 108.936C1118.88 107.892 1119.22 107.076 1119.89 106.488C1120.57 105.9 1121.51 105.606 1122.7 105.606C1123.38 105.606 1123.98 105.684 1124.48 105.84C1125 105.996 1125.43 106.17 1125.78 106.362L1125.13 108.072C1124.83 107.904 1124.49 107.76 1124.12 107.64C1123.76 107.52 1123.34 107.46 1122.86 107.46C1121.68 107.46 1121.1 107.886 1121.1 108.738C1121.1 108.954 1121.16 109.146 1121.28 109.314C1121.4 109.47 1121.55 109.614 1121.73 109.746C1121.92 109.866 1122.13 109.974 1122.36 110.07C1122.6 110.166 1122.83 110.256 1123.06 110.34C1123.41 110.472 1123.77 110.622 1124.14 110.79C1124.52 110.946 1124.87 111.162 1125.18 111.438C1125.51 111.702 1125.77 112.038 1125.97 112.446C1126.18 112.842 1126.28 113.346 1126.28 113.958C1126.28 115.002 1125.94 115.812 1125.25 116.388C1124.58 116.952 1123.56 117.234 1122.18 117.234C1121.25 117.234 1120.51 117.138 1119.96 116.946C1119.41 116.742 1119 116.556 1118.72 116.388L1119.37 114.588C1119.69 114.78 1120.08 114.96 1120.52 115.128C1120.98 115.296 1121.53 115.38 1122.18 115.38Z" fill="white"/>
<rect x="1056" y="125" width="88" height="7" rx="3.5" fill="#5A606A"/>
<rect x="1056" y="125" width="38" height="7" rx="3.5" fill="#539E43"/>
<defs>
<clipPath id="clip0_1_326">
<rect width="96" height="96" fill="white" transform="translate(210 1)"/>
</clipPath>
<clipPath id="clip1_1_326">
<rect width="96" height="96" fill="white" transform="translate(350 1)"/>
</clipPath>
</defs>
</svg>
